<?xml version="1.0" encoding="utf-8"?>
<!-- Generator: Adobe Illustrator 27.3.1, SVG Export Plug-In . SVG Version: 6.00 Build 0)  -->
<svg version="1.1" id="Layer_1" xmlns="http://www.w3.org/2000/svg" xmlns:xlink="http://www.w3.org/1999/xlink" x="0px" y="0px"
	 viewBox="979.002 0 3055.998 3000.002" enable-background="new 979.002 0 3055.998 3000.002" xml:space="preserve">
<polygon fill="#1A2237" points="3181.688,1499.961 2499.998,2585.071 1880.798,2042.551 1261.678,1499.961 1880.798,957.451 
	2499.998,414.931 3181.688,1499.961 2840.848,1201.311 2499.998,902.661 2159.148,1201.311 1818.308,1499.961 2159.148,1798.621 
	2499.998,2097.271 2840.848,1798.621 "/>
<path fill="#0D1426" d="M2007.954,846.066l164.086-143.783l269.782,251.351l-238.966,209.374L2007.954,846.066z M2441.822,2046.368
	l-236.95-207.646l-189.934,321.334l150.119,131.543L2441.822,2046.368z"/>
<path fill="#0D1426" d="M2367.231,531.284l132.767-116.351l588.956,937.433L2367.231,531.284z M3129.273,1583.413l-629.275,1001.656
	l-129.599-113.543L3129.273,1583.413z"/>
<linearGradient id="SVGID_1_" gradientUnits="userSpaceOnUse" x1="21072.7285" y1="-3013.374" x2="11623.7949" y2="-2576.4836" gradientTransform="matrix(0.072 0 0 -0.072 1960.9645 1328.2675)">
	<stop  offset="0" style="stop-color:#BA0F53"/>
	<stop  offset="1" style="stop-color:#D31E6F"/>
</linearGradient>
<polygon fill="url(#SVGID_1_)" points="2499.998,414.933 3119.122,957.449 3738.317,1499.965 3119.122,2042.554 2499.998,2585.069 
	3181.689,1499.965 "/>
<linearGradient id="SVGID_00000085967202883439019340000013201825076370694583_" gradientUnits="userSpaceOnUse" x1="19418.7461" y1="-6306.4868" x2="19371.4492" y2="-1096.2209" gradientTransform="matrix(0.072 0 0 -0.072 1960.9645 1328.2675)">
	<stop  offset="0" style="stop-color:#BA0F53"/>
	<stop  offset="1" style="stop-color:#D31E6F"/>
</linearGradient>
<polygon fill="url(#SVGID_00000085967202883439019340000013201825076370694583_)" points="2978.65,834.33 3119.122,957.449 
	3738.317,1499.965 3119.122,2042.554 2980.811,2163.8 3480.271,1500.325 "/>
<polygon fill="#FFFFFF" fill-opacity="0.2" points="2499.998,414.933 2547.014,456.188 3201.705,1499.965 2555.51,2536.397 
	2499.998,2585.069 3181.689,1499.965 "/>
<linearGradient id="SVGID_00000135689066415350532340000018262706080877422742_" gradientUnits="userSpaceOnUse" x1="11241.4443" y1="-2393.5554" x2="3093.2053" y2="-2388.5493" gradientTransform="matrix(0.072 0 0 -0.072 1960.9645 1328.2675)">
	<stop  offset="0" style="stop-color:#BA0F53"/>
	<stop  offset="1" style="stop-color:#D31E6F"/>
</linearGradient>
<polygon fill="url(#SVGID_00000135689066415350532340000018262706080877422742_)" points="1790.083,414.933 2409.207,957.449 
	3028.402,1499.965 2409.207,2042.554 1790.083,2585.069 2471.774,1499.965 "/>
<linearGradient id="SVGID_00000028314146292576427010000008035315147037423242_" gradientUnits="userSpaceOnUse" x1="9531.2051" y1="-7756.5146" x2="9547.709" y2="991.0281" gradientTransform="matrix(0.072 0 0 -0.072 1960.9645 1328.2675)">
	<stop  offset="0" style="stop-color:#BA0F53"/>
	<stop  offset="1" style="stop-color:#D31E6F"/>
</linearGradient>
<polygon fill="url(#SVGID_00000028314146292576427010000008035315147037423242_)" points="2268.735,834.33 2409.207,957.449 
	3028.402,1499.965 2409.207,2042.554 2270.823,2163.8 2770.356,1500.325 "/>
<polygon fill="#FFFFFF" fill-opacity="0.2" points="1790.083,414.933 1837.099,456.188 2491.718,1499.965 1845.595,2536.397 
	1790.083,2585.069 2471.774,1499.965 "/>
</svg>
